<svg width="411" height="129" viewBox="0 0 411 129" fill="none" xmlns="http://www.w3.org/2000/svg">
<path d="M0 25.6872C0 11.5005 11.5005 0 25.6872 0V0V25.6872H0V25.6872Z" fill="white"/>
<rect x="25.6875" width="25.6872" height="25.6872" fill="white"/>
<rect x="51.3828" width="25.6872" height="25.6872" fill="white"/>
<rect x="51.3828" width="25.6872" height="25.6872" fill="white"/>
<path d="M77.0547 0V0C91.2413 0 102.742 11.5005 102.742 25.6872V25.6872H77.0547V0Z" fill="#0068B3"/>
<rect y="25.6865" width="25.6872" height="25.6872" fill="white"/>
<rect y="51.375" width="25.6872" height="25.6872" fill="white"/>
<rect y="77.0615" width="25.6872" height="25.6872" fill="white"/>
<path d="M0 102.749H25.6872V128.436V128.436C11.5005 128.436 0 116.936 0 102.749V102.749Z" fill="white"/>
<rect x="25.6875" y="102.749" width="25.6872" height="25.6872" fill="white"/>
<rect x="51.3828" y="102.749" width="25.6872" height="25.6872" fill="white"/>
<path d="M77.0547 102.749H102.742V102.749C102.742 116.936 91.2413 128.436 77.0547 128.436V128.436V102.749Z" fill="#0068B3"/>
<rect x="51.375" y="102.749" width="25.6872" height="25.6872" fill="white"/>
<rect x="179.812" y="102.749" width="25.6872" height="25.6872" fill="white"/>
<rect x="154.125" y="102.749" width="25.6872" height="25.6872" fill="white"/>
<path d="M128.438 102.749H154.125V128.436V128.436C139.938 128.436 128.438 116.936 128.438 102.749V102.749Z" fill="white"/>
<path d="M128.438 77.0615V77.0615C142.624 77.0615 154.125 88.5621 154.125 102.749V102.749H128.438V77.0615Z" fill="#009DDC"/>
<rect x="205.492" y="25.6875" width="25.6872" height="25.6872" fill="white"/>
<path d="M205.492 25.6872C205.492 11.5005 216.993 0 231.179 0V0V25.6872H205.492V25.6872Z" fill="white"/>
<path d="M231.188 0H256.875V0C256.875 14.1866 245.374 25.6872 231.188 25.6872V25.6872V0Z" fill="#009DDC"/>
<rect x="205.492" y="51.375" width="25.6872" height="25.6872" fill="white"/>
<rect x="205.492" y="77.0615" width="25.6872" height="25.6872" fill="white"/>
<path d="M205.492 102.749H231.179V102.749C231.179 116.936 219.679 128.436 205.492 128.436V128.436V102.749Z" fill="white"/>
<path d="M385.312 25.6872C385.312 11.5005 396.813 0 411 0V0V25.6872H385.312V25.6872Z" fill="white"/>
<rect x="385.312" y="25.6875" width="25.6872" height="25.6872" fill="white"/>
<path d="M282.562 0V0C296.749 0 308.25 11.5005 308.25 25.6872V25.6872H282.562V0Z" fill="white"/>
<rect x="282.562" y="77.0615" width="25.6872" height="25.6872" fill="white"/>
<rect x="282.562" y="51.374" width="25.6872" height="25.6872" fill="white"/>
<rect x="282.562" y="25.6875" width="25.6872" height="25.6872" fill="white"/>
<rect x="385.312" y="51.375" width="25.6872" height="25.6872" fill="white"/>
<rect x="385.312" y="77.0615" width="25.6872" height="25.6872" fill="white"/>
<path d="M282.562 102.749H308.25V128.436V128.436C294.063 128.436 282.562 116.936 282.562 102.749V102.749Z" fill="white"/>
<path d="M385.312 102.749H411V102.749C411 116.936 399.499 128.436 385.312 128.436V128.436V102.749Z" fill="white"/>
<path d="M308.25 102.749V102.749C322.437 102.749 333.937 114.25 333.937 128.436V128.436H308.25V102.749Z" fill="white"/>
<path d="M359.625 128.436C359.625 114.25 371.126 102.749 385.312 102.749V102.749V128.436H359.625V128.436Z" fill="white"/>
<path d="M333.945 64.2186C333.945 57.1253 339.696 51.375 346.789 51.375V51.375C353.882 51.375 359.632 57.1253 359.632 64.2186V64.2186C359.632 71.3119 353.882 77.0622 346.789 77.0622V77.0622C339.696 77.0622 333.945 71.3119 333.945 64.2186V64.2186Z" fill="#C1D72E"/>
</svg>
